<svg xmlns="http://www.w3.org/2000/svg" viewBox="0 0 132.24 55"><defs><style>.cls-1,.cls-2{fill:#fff;}.cls-2{stroke:#435c82;stroke-miterlimit:10;stroke-width:0.5px;}.cls-3{fill:#435c82;}</style></defs><g id="Layer_2" data-name="Layer 2"><g id="_7" data-name="7"><path class="cls-1" d="M17.39,40.79a9,9,0,0,1-3.83-3.92,13.49,13.49,0,0,1-1.32-6.21V28a13.17,13.17,0,0,1,1.32-6.14A8.86,8.86,0,0,1,17.39,18a12.82,12.82,0,0,1,6.06-1.33,15.31,15.31,0,0,1,3.84.46,11.77,11.77,0,0,1,3.24,1.35,8.53,8.53,0,0,1,2.39,2.15l-4.23,4.1a6.59,6.59,0,0,0-2.13-1.3A7.09,7.09,0,0,0,24,23a5.33,5.33,0,0,0-3.85,1.33A5,5,0,0,0,18.79,28v2.65a5.17,5.17,0,0,0,1.36,3.83A5.25,5.25,0,0,0,24,35.84a6.86,6.86,0,0,0,2.59-.5,6.12,6.12,0,0,0,2.1-1.43l4.23,4.34a8.94,8.94,0,0,1-2.41,2.11,12.12,12.12,0,0,1-3.23,1.33,15.71,15.71,0,0,1-3.83.45A12.7,12.7,0,0,1,17.39,40.79Z"/><path class="cls-1" d="M38.12,40.24c-1.32-1.26-2-3.18-2-5.76A6.73,6.73,0,0,1,38.36,29q2.2-1.84,6.63-1.84h6.22l.33,5H45a3.57,3.57,0,0,0-2.22.58,2.14,2.14,0,0,0-.74,1.78,2,2,0,0,0,.93,1.8,5.39,5.39,0,0,0,2.82.59,9.64,9.64,0,0,0,3.91-.6A2,2,0,0,0,51,34.41l.5,3.6a3.34,3.34,0,0,1-1.23,2.27,7.07,7.07,0,0,1-2.72,1.39,12.68,12.68,0,0,1-3.46.47Q40.09,42.14,38.12,40.24ZM51,26.08a3.21,3.21,0,0,0-1.15-2.65,5,5,0,0,0-3.25-.93,8.75,8.75,0,0,0-2.75.45,8.26,8.26,0,0,0-2.41,1.27l-4.06-4a9.69,9.69,0,0,1,3.92-2.63,14.79,14.79,0,0,1,5.4-.94,12.94,12.94,0,0,1,5.54,1.08,7.81,7.81,0,0,1,3.51,3.15,9.77,9.77,0,0,1,1.2,5V41.78H51Z"/><path class="cls-1" d="M63.4,17h7V41.78h-7Zm12.78,6.18a4.85,4.85,0,0,0-1.6-.24,3.83,3.83,0,0,0-3.07,1.28,5.31,5.31,0,0,0-1.09,3.54l-.5-6.44a8.92,8.92,0,0,1,2.67-3.45,5.84,5.84,0,0,1,3.59-1.22,7.78,7.78,0,0,1,2.81.48,6.12,6.12,0,0,1,2.19,1.45l-3.82,5.32A3,3,0,0,0,76.18,23.19Z"/><path class="cls-1" d="M86.93,40.87a7.87,7.87,0,0,1-2.86-3.66,15.36,15.36,0,0,1-1-5.78v-4a15.68,15.68,0,0,1,1-5.84,7.43,7.43,0,0,1,7.37-5,6.05,6.05,0,0,1,3.62,1.18,8.27,8.27,0,0,1,2.64,3.35l-.5,5.49a5,5,0,0,0-.43-2.15,3.05,3.05,0,0,0-1.26-1.35,4,4,0,0,0-2-.46A3.45,3.45,0,0,0,90.66,24a5.43,5.43,0,0,0-1,3.52v3.94a5.2,5.2,0,0,0,1,3.43,3.52,3.52,0,0,0,2.85,1.22,4,4,0,0,0,2-.46,3,3,0,0,0,1.26-1.31,4.66,4.66,0,0,0,.43-2.07l.33,5.65A6.55,6.55,0,0,1,95.19,41a6.34,6.34,0,0,1-3.75,1.11A7.82,7.82,0,0,1,86.93,40.87ZM97.2,7.09h6.55V41.78H97.2Z"/><path class="cls-1" d="M115.36,41.75a20.26,20.26,0,0,1-3.94-1.16,14.33,14.33,0,0,1-3.25-1.84l4-5A15.62,15.62,0,0,0,116,35.48a12.18,12.18,0,0,0,3.73.62,9.83,9.83,0,0,0,3.56-.51c.85-.34,1.27-.82,1.27-1.42A1.51,1.51,0,0,0,124,32.9a3.5,3.5,0,0,0-1.41-.6,23.8,23.8,0,0,0-2.42-.33l-.87-.09-.89-.1-.21,0H118a27,27,0,0,1-4.45-.89,5.72,5.72,0,0,1-2.83-2,7,7,0,0,1-1.16-4.33,7,7,0,0,1,4.66-6.94,14.76,14.76,0,0,1,5.5-.91,18.38,18.38,0,0,1,3.76.38,19.5,19.5,0,0,1,3.6,1.09,17.28,17.28,0,0,1,3.18,1.72l-3.89,4.75a16.49,16.49,0,0,0-3.4-1.41,12.6,12.6,0,0,0-3.39-.5,8.21,8.21,0,0,0-3.09.46c-.73.3-1.1.72-1.1,1.26a1.09,1.09,0,0,0,.59,1,4.55,4.55,0,0,0,1.46.5c.58.1,1.43.22,2.54.34l.43.05.43.05.22,0a.66.66,0,0,1,.21,0,29.42,29.42,0,0,1,4.71.86,6.12,6.12,0,0,1,3.1,2.1A7.21,7.21,0,0,1,130.33,34a7.31,7.31,0,0,1-4.88,7.22,15.22,15.22,0,0,1-5.76,1A23.72,23.72,0,0,1,115.36,41.75Z"/><rect class="cls-2" x="2.72" y="11.36" width="28.13" height="41.13" rx="5.92" transform="translate(-5.37 3.46) rotate(-10.16)"/><rect class="cls-2" x="5.89" y="8.81" width="28.14" height="41.12" rx="5.92"/><path class="cls-3" d="M14.77,40.77a9,9,0,0,1-3.84-3.93,13.42,13.42,0,0,1-1.31-6.2V28a13.17,13.17,0,0,1,1.31-6.14A8.94,8.94,0,0,1,14.77,18a12.79,12.79,0,0,1,6.06-1.34,15.28,15.28,0,0,1,3.83.47,11.51,11.51,0,0,1,3.24,1.35,8.52,8.52,0,0,1,2.39,2.14L26.06,24.7a6.39,6.39,0,0,0-2.13-1.3,7.08,7.08,0,0,0-2.55-.47,5.27,5.27,0,0,0-3.85,1.33A4.94,4.94,0,0,0,16.17,28v2.65a5.15,5.15,0,0,0,1.36,3.83,5.23,5.23,0,0,0,3.85,1.35,6.78,6.78,0,0,0,2.58-.5,6,6,0,0,0,2.1-1.44l4.23,4.35a9,9,0,0,1-2.41,2.11,11.65,11.65,0,0,1-3.23,1.32,15.15,15.15,0,0,1-3.82.46A12.67,12.67,0,0,1,14.77,40.77Z"/></g></g></svg>