<svg width="337" height="242" viewBox="0 0 337 242" fill="none" xmlns="http://www.w3.org/2000/svg">
<g clip-path="url(#clip0_93_30)">
<path d="M302.14 130.88C302.14 169.99 254.75 218.36 192.48 234.88C189.4 235.7 186.27 236.44 183.12 237.1C171.611 239.525 159.882 240.752 148.12 240.76C134.745 240.814 121.382 239.972 108.12 238.24C104.84 237.81 101.62 237.31 98.44 236.74C40.72 226.54 0 195.71 0 132.83C0 112.41 7.13 78.37 60.63 83.75C85.27 86.22 112.35 92.31 141.02 92.31C178.69 92.31 202.62 51.46 256.76 63.46C297.17 72.41 302.14 107.54 302.14 130.88Z" fill="#E6EDF9" class="svg-light" />
<path d="M145.56 49.09C119.2 54.92 114.23 16.45 81.9999 30.28C65.3999 37.41 62.5499 65.94 125.45 74.59C125.45 74.59 187.8 81.66 186.61 50.38C185.55 22.07 155.59 46.87 145.56 49.09Z" fill="#E6EDF9" class="svg-light"/>
<path d="M75.21 71.36H2.75002C1.46359 69.7957 0.648004 67.8981 0.398248 65.8882C0.148492 63.8783 0.47484 61.8389 1.33929 60.0073C2.20374 58.1757 3.57072 56.6274 5.28105 55.5426C6.99138 54.4578 8.97469 53.8812 11 53.88C13.4865 53.884 15.8953 54.7458 17.82 56.32C17.8496 53.6357 18.4852 50.9927 19.6794 48.5885C20.8737 46.1843 22.5956 44.081 24.7168 42.4357C26.8379 40.7903 29.3033 39.6455 31.929 39.0866C34.5546 38.5277 37.2726 38.5692 39.8799 39.2081C42.4873 39.847 44.9166 41.0667 46.9864 42.7761C49.0563 44.4855 50.7131 46.6405 51.8333 49.0801C52.9535 51.5197 53.5081 54.1808 53.4555 56.8647C53.403 59.5487 52.7448 62.1861 51.53 64.58L75.21 71.36Z" fill="#E6EDF9" class="svg-light"/>
<path d="M199.69 44.6H298.52C300.269 42.4625 301.376 39.8725 301.711 37.131C302.046 34.3896 301.596 31.6092 300.414 29.1132C299.231 26.6173 297.365 24.5082 295.031 23.0313C292.697 21.5544 289.992 20.7702 287.23 20.77C283.84 20.7695 280.554 21.9426 277.93 24.09C277.887 20.4301 277.018 16.8271 275.388 13.5498C273.758 10.2726 271.41 7.40567 268.517 5.163C265.624 2.92032 262.263 1.35977 258.683 0.597775C255.103 -0.164222 251.397 -0.107996 247.842 0.762258C244.286 1.63251 240.974 3.29433 238.15 5.62373C235.327 7.95312 233.066 10.89 231.537 14.2152C230.007 17.5403 229.248 21.168 229.316 24.8276C229.384 28.4871 230.278 32.084 231.93 35.35L199.69 44.6Z" fill="#E6EDF9" class="svg-light"/>
<path d="M192.48 234.91C189.4 235.73 186.27 236.47 183.12 237.13C171.611 239.555 159.882 240.782 148.12 240.79C134.745 240.844 121.382 240.002 108.12 238.27L108.18 234.56L108.88 224.49L109.28 218.75H190.8L192.3 233.19L192.48 234.91Z" fill="#5F83B7" stroke="#435C82" stroke-width="0.86" stroke-miterlimit="10"/>
<path d="M115.79 224C115.61 228.54 114.21 234.4 108.18 234.55" stroke="#344A6A" stroke-width="0.86" stroke-miterlimit="10"/>
<path d="M184.73 218.74C184.73 218.74 183.42 232.97 192.3 233.19" stroke="#344A6A" stroke-width="0.86" stroke-miterlimit="10"/>
<path d="M151.66 227.34V221.49V227.34ZM151.66 227.34V233.19" stroke="#344A6A" stroke-width="0.86" stroke-miterlimit="10"/>
<path d="M151.66 227.33C151.66 227.33 158.09 230.66 158.66 221" stroke="#344A6A" stroke-width="0.86" stroke-miterlimit="10"/>
<path opacity="0.5" d="M108.88 224.49L190.81 218.74H109.28L108.88 224.49Z" fill="#435C82"/>
<path d="M293.21 138.14C292.022 138.139 290.865 137.757 289.91 137.05L255.28 111.2C254.699 110.766 254.208 110.222 253.837 109.599C253.466 108.975 253.222 108.285 253.118 107.567C253.014 106.849 253.052 106.118 253.231 105.415C253.41 104.712 253.726 104.051 254.16 103.47L290.16 55.21C290.68 54.5243 291.351 53.968 292.121 53.5846C292.891 53.2012 293.74 53.0012 294.6 53C295.789 52.9978 296.946 53.3802 297.9 54.09L332.53 79.94C333.701 80.8159 334.477 82.1208 334.687 83.5683C334.897 85.0157 334.524 86.4874 333.65 87.66L297.65 135.92C297.134 136.608 296.465 137.167 295.697 137.552C294.928 137.937 294.08 138.138 293.22 138.14H293.21Z" fill="#F5F5F5" class="svg-dark" />
<path d="M294.6 54.71C295.418 54.7071 296.215 54.9703 296.87 55.46L331.51 81.31C332.318 81.915 332.854 82.8162 332.998 83.8156C333.142 84.815 332.884 85.8309 332.28 86.64L296.28 134.9C295.924 135.375 295.462 135.761 294.931 136.027C294.4 136.292 293.814 136.43 293.22 136.43C292.401 136.429 291.604 136.163 290.95 135.67L256.3 109.83C255.491 109.225 254.956 108.324 254.812 107.324C254.667 106.325 254.926 105.309 255.53 104.5L291.53 56.24C291.883 55.7642 292.343 55.378 292.873 55.1123C293.403 54.8466 293.987 54.7088 294.58 54.71M294.58 51.29C293.455 51.2915 292.345 51.5542 291.339 52.0575C290.332 52.5607 289.456 53.2907 288.78 54.19L252.78 102.45C252.212 103.211 251.799 104.076 251.566 104.997C251.332 105.917 251.282 106.875 251.419 107.814C251.555 108.754 251.875 109.658 252.361 110.474C252.847 111.29 253.489 112.002 254.25 112.57L288.88 138.42C290.126 139.354 291.643 139.856 293.2 139.85C294.321 139.854 295.428 139.599 296.434 139.105C297.44 138.61 298.318 137.89 299 137L335 88.74C336.142 87.2013 336.629 85.273 336.353 83.3766C336.078 81.4803 335.063 79.7701 333.53 78.62L298.92 52.72C297.674 51.7862 296.157 51.2842 294.6 51.29H294.58Z" fill="#435C82"/>
<path d="M323.863 86.1623L294.413 64.179C293.997 63.8684 293.408 63.954 293.098 64.37L290.286 68.1364C289.976 68.5524 290.061 69.1414 290.477 69.4519L319.927 91.4352C320.343 91.7458 320.932 91.6603 321.243 91.2442L324.054 87.4779C324.365 87.0618 324.279 86.4728 323.863 86.1623Z" fill="white" class="svg-light"/>
<path d="M294.408 64.1732L295.161 64.7354L291.226 70.009L290.473 69.4468C290.273 69.2977 290.141 69.0754 290.105 68.8286C290.069 68.5819 290.132 68.3311 290.282 68.1313L293.092 64.3644C293.241 64.1646 293.464 64.0322 293.711 63.9963C293.957 63.9605 294.208 64.0241 294.408 64.1732Z" fill="#435C82" />
<path opacity="0.3" d="M294.82 67.55L307.66 77.14" stroke="#435C82" class="svg-text" stroke-width="1.28" stroke-miterlimit="10" stroke-linecap="round"/>
<path opacity="0.3" d="M293.19 69.73L297.33 72.81" stroke="#435C82" class="svg-text" stroke-width="0.86" stroke-miterlimit="10" stroke-linecap="round"/>
<path opacity="0.3" d="M298.31 73.55L300.86 75.45" stroke="#435C82" class="svg-text" stroke-width="0.86" stroke-miterlimit="10" stroke-linecap="round"/>
<path d="M318.559 93.2615L289.109 71.2782C288.693 70.9677 288.104 71.0532 287.794 71.4692L284.982 75.2356C284.672 75.6516 284.757 76.2406 285.173 76.5512L314.623 98.5345C315.039 98.845 315.628 98.7595 315.939 98.3435L318.75 94.5771C319.061 94.1611 318.975 93.5721 318.559 93.2615Z" fill="white" class="svg-light"/>
<path d="M289.114 71.2739L289.867 71.8361L285.932 77.1097L285.179 76.5475C284.979 76.3984 284.847 76.1761 284.811 75.9294C284.775 75.6826 284.839 75.4318 284.988 75.232L287.798 71.4651C287.948 71.2653 288.17 71.1329 288.417 71.0971C288.663 71.0612 288.914 71.1248 289.114 71.2739Z" fill="#435C82" />
<path opacity="0.3" d="M289.52 74.65L298.25 81.17"  stroke="#435C82" class="svg-text" stroke-width="1.28" stroke-miterlimit="10" stroke-linecap="round"/>
<path opacity="0.3" d="M287.89 76.83L292.03 79.91" stroke="#435C82" class="svg-text" stroke-width="0.86" stroke-miterlimit="10" stroke-linecap="round"/>
<path opacity="0.3" d="M293.01 80.65L295.56 82.55" stroke="#435C82" class="svg-text" stroke-width="0.86" stroke-miterlimit="10" stroke-linecap="round"/>
<path d="M313.265 100.361L283.815 78.3775C283.399 78.067 282.81 78.1525 282.499 78.5685L279.688 82.3349C279.377 82.7509 279.463 83.3399 279.879 83.6505L309.329 105.634C309.745 105.944 310.334 105.859 310.644 105.443L313.456 101.676C313.766 101.26 313.681 100.671 313.265 100.361Z" fill="white" class="svg-light"/>
<path d="M283.81 78.3746L284.563 78.9368L280.628 84.2104L279.875 83.6483C279.675 83.4992 279.543 83.2768 279.507 83.0301C279.471 82.7834 279.535 82.5326 279.684 82.3327L282.494 78.5659C282.644 78.3661 282.866 78.2337 283.113 78.1978C283.359 78.1619 283.61 78.2256 283.81 78.3746Z" fill="#435C82" />
<path opacity="0.3" d="M284.22 81.75L298.44 92.36" stroke="#435C82" class="svg-text" stroke-width="1.28" stroke-miterlimit="10" stroke-linecap="round"/>
<path opacity="0.3" d="M282.59 83.93L286.73 87.01" stroke="#435C82" class="svg-text" stroke-width="0.86" stroke-miterlimit="10" stroke-linecap="round"/>
<path opacity="0.3" d="M287.71 87.75L290.26 89.65" stroke="#435C82" class="svg-text" stroke-width="0.86" stroke-miterlimit="10" stroke-linecap="round"/>
<path d="M307.961 107.46L278.511 85.4768C278.095 85.1662 277.506 85.2517 277.195 85.6678L274.384 89.4341C274.073 89.8502 274.159 90.4392 274.575 90.7497L304.024 112.733C304.44 113.044 305.029 112.958 305.34 112.542L308.152 108.776C308.462 108.36 308.377 107.771 307.961 107.46Z" fill="white" class="svg-light"/>
<path d="M278.51 85.4834L279.264 86.0456L275.328 91.3192L274.575 90.7571C274.375 90.608 274.243 90.3856 274.207 90.1389C274.171 89.8922 274.235 89.6413 274.384 89.4415L277.195 85.6746C277.344 85.4748 277.566 85.3424 277.813 85.3066C278.06 85.2707 278.31 85.3343 278.51 85.4834Z" fill="#435C82" />
<path opacity="0.3" d="M278.92 88.86L287.65 95.37" stroke="#435C82" class="svg-text" stroke-width="1.28" stroke-miterlimit="10" stroke-linecap="round"/>
<path opacity="0.3" d="M277.29 91.03L281.43 94.12" stroke="#435C82" class="svg-text" stroke-width="0.86" stroke-miterlimit="10" stroke-linecap="round"/>
<path opacity="0.3" d="M282.41 94.85L284.96 96.75" stroke="#435C82" class="svg-text" stroke-width="0.86" stroke-miterlimit="10" stroke-linecap="round"/>
<path d="M302.666 114.569L273.216 92.586C272.8 92.2755 272.211 92.361 271.901 92.777L269.089 96.5434C268.779 96.9594 268.864 97.5484 269.28 97.859L298.73 119.842C299.146 120.153 299.735 120.067 300.046 119.651L302.857 115.885C303.168 115.469 303.082 114.88 302.666 114.569Z" fill="white" class="svg-light"/>
<path d="M273.207 92.5841L273.96 93.1463L270.025 98.4199L269.271 97.8578C269.072 97.7087 268.939 97.4863 268.903 97.2396C268.867 96.9929 268.931 96.742 269.08 96.5422L271.891 92.7753C272.04 92.5755 272.262 92.4431 272.509 92.4073C272.756 92.3714 273.007 92.435 273.207 92.5841Z" fill="#435C82" />
<path opacity="0.3" d="M273.62 95.96L285.78 105.03" stroke="#435C82" class="svg-text" stroke-width="1.28" stroke-miterlimit="10" stroke-linecap="round"/>
<path opacity="0.3" d="M272 98.13L276.13 101.22" stroke="#435C82" class="svg-text" stroke-width="0.86" stroke-miterlimit="10" stroke-linecap="round"/>
<path opacity="0.3" d="M277.11 101.95L279.66 103.86" stroke="#435C82" class="svg-text" stroke-width="0.86" stroke-miterlimit="10" stroke-linecap="round"/>
<path d="M297.356 121.677L267.906 99.6933C267.49 99.3828 266.901 99.4683 266.591 99.8843L263.779 103.651C263.469 104.067 263.554 104.656 263.97 104.966L293.42 126.95C293.836 127.26 294.425 127.175 294.736 126.759L297.547 122.992C297.858 122.576 297.772 121.987 297.356 121.677Z" fill="white" class="svg-light"/>
<path d="M267.936 99.6528L268.69 100.215L264.755 105.489L264.001 104.926C263.801 104.777 263.669 104.555 263.633 104.308C263.597 104.062 263.661 103.811 263.81 103.611L266.585 99.8921C266.655 99.7843 266.747 99.6921 266.854 99.6211C266.961 99.5501 267.082 99.5019 267.209 99.4795C267.335 99.457 267.465 99.4609 267.59 99.4907C267.716 99.5205 267.833 99.5757 267.936 99.6528Z" fill="#435C82"/>
<path opacity="0.3" d="M268.32 103.06L274.31 107.53" stroke="#435C82" class="svg-text" stroke-width="1.28" stroke-miterlimit="10" stroke-linecap="round"/>
<path opacity="0.3" d="M266.7 105.23L270.83 108.32" stroke="#435C82" class="svg-text" stroke-width="0.86" stroke-miterlimit="10" stroke-linecap="round"/>
<path opacity="0.3" d="M271.81 109.05L274.36 110.96" stroke="#435C82" class="svg-text" stroke-width="0.86" stroke-miterlimit="10" stroke-linecap="round"/>
<path d="M282.13 133.37C277.99 137.9 270.56 139.81 270.56 139.81L224.45 193.05C224.45 193.05 223.15 195.72 216.82 196.05C213.08 196.24 208.82 191.39 205.95 187.41C204.39 185.23 203.25 183.32 202.84 182.61L202.67 182.31L203 182L223.17 161.08L226.37 158.39L257.37 124.92C257.65 121.84 260.97 109.84 263.02 109.42C265.07 109 273.42 109.12 272.32 112.12C271.22 115.12 267.07 114.71 267.07 114.71C268.07 119.41 266.35 121.44 266.35 121.44L282.13 133.37Z" fill="#FDC1C2"/>
<path d="M223.16 161.05L206.21 187.3L205.95 187.41C204.39 185.23 203.25 183.32 202.84 182.61L203 182L223.16 161.05Z" fill="#EB9D9C"/>
<path d="M167.26 106.55L184.49 109.46H184.76C196.76 110.66 201.3 116.89 201.3 116.89L223.6 154.18L225.82 158.26L202.24 182.75L199.54 177.41L190.8 160.16V218.72H109.28L109 171.63L108.85 142.73V160.56L98.85 175.7L96.24 179.7L72.24 154.24L74.24 151.03L97.98 117.03C104.14 109.26 115.17 109.42 115.17 109.42L137.04 106.42L140.72 105.91H163.47L167.15 106.53L184.38 109.44H184.65C196.65 110.64 201.19 116.87 201.19 116.87L223.49 154.16L225.71 158.24L202.13 182.73L199.43 177.39L190.69 160.14V218.7H109.28L109 171.63L108.85 142.73V160.56L98.85 175.7L96.24 179.7L72.24 154.24L74.24 151.03L97.98 117.03C104.14 109.26 115.17 109.42 115.17 109.42" fill="#465C7F"/>
<path d="M167.26 106.55L184.49 109.46H184.76C196.76 110.66 201.3 116.89 201.3 116.89L223.6 154.18L225.82 158.26L202.24 182.75L199.54 177.41L190.8 160.16V218.72H109.28L109 171.63M109 171.63L108.85 142.73V160.56L98.85 175.7L96.24 179.7L72.24 154.24L74.24 151.03L97.98 117.03C104.14 109.26 115.17 109.42 115.17 109.42L137.04 106.42L140.72 105.91H163.47L167.15 106.53L184.38 109.44H184.65C196.65 110.64 201.19 116.87 201.19 116.87L223.49 154.16L225.71 158.24L202.13 182.73L199.43 177.39L190.69 160.14V218.7H109.28L109 171.63Z" stroke="#2B353A"  stroke-width="0.83" stroke-miterlimit="10"/>
<path opacity="0.5" d="M109 171.63C125.08 197.56 88.77 217.01 190.78 218.74H109.28L109 171.63Z" fill="#33425A"/>
<g opacity="0.5">
<path d="M74.3501 151.02L98.9201 175.71" stroke="#2B353A" stroke-width="0.83" stroke-miterlimit="10"/>
<path d="M223.6 154.21L199.54 177.42" stroke="#2B353A" stroke-width="0.83" stroke-miterlimit="10"/>
</g>
<path d="M136.11 106.58C136.11 106.58 138.11 120.98 152 120.98C168.43 120.98 167.88 106.66 167.88 106.66" stroke="#344A6A" stroke-width="0.83" stroke-miterlimit="10"/>
<path d="M173.26 77.76C174.181 74.1244 174.133 70.311 173.12 66.7C189.66 58.92 189.43 27.59 146.69 47.09C146.69 47.09 132.82 42.7 134.75 48.67C134.75 48.67 115.5 63.67 140.32 92.44L173.26 77.76Z" fill="#344A6A"/>
<path d="M173.08 89.19C172.42 97.49 164.25 100.56 164.25 100.56V107.47C164.2 108.82 163.59 117.27 152.4 117.27C140.46 117.27 139.4 106.12 139.4 106.12L140.81 81.45H134.72C126.29 77.71 129.92 64.82 140.81 67.52V73C140.81 73 140.74 74.07 142.81 73.5L148.81 65.25C148.81 65.25 162.64 68.05 171.21 67.16C171.2 67.18 174.18 69.65 173.08 89.19Z" fill="#FDC1C2"/>
<path d="M164.25 100.56H152.58C154.024 102.275 155.805 103.675 157.812 104.673C159.82 105.671 162.011 106.245 164.25 106.36V100.56Z" fill="#EAA2A2"/>
<path d="M132.94 75.65C132.94 75.65 131.65 69.98 138.2 70.21" stroke="#EAA2A2" stroke-width="0.93" stroke-miterlimit="10"/>
<path d="M164.25 75.19L167.88 82.62L163.08 85.61" stroke="#EAA2A2" stroke-width="0.93" stroke-miterlimit="10"/>
<path d="M156.7 90.23C156.7 90.23 163.32 90.11 164.49 91.23" stroke="#EAA2A2" stroke-width="0.93" stroke-miterlimit="10"/>
<path d="M157.56 76.55C158.035 76.55 158.42 75.7396 158.42 74.74C158.42 73.7404 158.035 72.93 157.56 72.93C157.085 72.93 156.7 73.7404 156.7 74.74C156.7 75.7396 157.085 76.55 157.56 76.55Z" fill="#344A6A"/>
<path d="M170.76 76.55C171.235 76.55 171.62 75.7396 171.62 74.74C171.62 73.7404 171.235 72.93 170.76 72.93C170.285 72.93 169.9 73.7404 169.9 74.74C169.9 75.7396 170.285 76.55 170.76 76.55Z" fill="#344A6A"/>
<path d="M152.75 73.37H160.1" stroke="#344A6A" stroke-width="0.93" stroke-miterlimit="10"/>
<path d="M166.15 73.37H173.49" stroke="#344A6A" stroke-width="0.93" stroke-miterlimit="10"/>
<path d="M151.74 70.58H160.74C160.74 70.58 161.84 66.84 151.74 69.79V70.58Z" fill="#344A6A"/>
<path d="M173.12 68.67V70H166C166 70 165 66.71 173.12 68.67Z" fill="#344A6A"/>
<path d="M196.63 55.91C196.889 55.5101 197.23 55.1693 197.63 54.91C198.009 54.6803 198.426 54.518 198.86 54.43C199.466 54.2976 200.081 54.2074 200.7 54.16C201.635 54.0771 202.562 53.9165 203.47 53.68C204.184 53.4896 204.861 53.1785 205.47 52.76C206.079 52.3269 206.599 51.7802 207 51.15C207.722 50.1538 208.12 48.9599 208.14 47.73C208.123 46.5613 207.754 45.425 207.08 44.47C206.298 43.3557 205.306 42.4046 204.16 41.67C203.215 40.985 202.169 40.4519 201.06 40.09C200.24 39.8412 199.387 39.7231 198.53 39.74L195.74 44C196.734 43.8434 197.746 43.8434 198.74 44C199.669 44.1876 200.55 44.5618 201.33 45.1C201.96 45.466 202.444 46.0382 202.7 46.72C202.786 47.0304 202.798 47.3566 202.735 47.6726C202.673 47.9885 202.538 48.2855 202.34 48.54C202.062 48.9735 201.694 49.3419 201.26 49.62C200.84 49.8878 200.376 50.0806 199.89 50.19C199.23 50.3349 198.562 50.4417 197.89 50.51C196.941 50.5744 196.014 50.8224 195.16 51.24C194.381 51.6852 193.722 52.3133 193.24 53.07C193.047 53.3583 192.88 53.6628 192.74 53.98C192.589 54.2993 192.475 54.6348 192.4 54.98L196.08 57.46C196.086 57.1999 196.137 56.9428 196.23 56.7C196.329 56.4204 196.463 56.1548 196.63 55.91ZM194.47 61.83C194.765 61.4109 194.925 60.9122 194.93 60.4C194.942 59.8983 194.813 59.4032 194.56 58.97C194.286 58.5051 193.91 58.1085 193.46 57.81C193.005 57.5003 192.485 57.2985 191.94 57.22C191.435 57.1449 190.92 57.2106 190.45 57.41C189.977 57.62 189.58 57.9688 189.31 58.41C189.026 58.8298 188.87 59.3231 188.86 59.83C188.862 60.3453 188.996 60.8516 189.25 61.3C189.521 61.7729 189.897 62.1768 190.35 62.48C190.8 62.786 191.312 62.9876 191.85 63.07C192.349 63.1413 192.858 63.0721 193.32 62.87C193.798 62.6452 194.199 62.2832 194.47 61.83Z" fill="#344A6A"/>
<path d="M116.33 66.83C116.223 66.4737 116.193 66.0989 116.24 65.73C116.3 65.3794 116.418 65.0413 116.59 64.73C116.78 64.39 117.05 63.96 117.41 63.44C117.86 62.8067 118.258 62.1379 118.6 61.44C118.866 60.8854 119.038 60.2907 119.11 59.68C119.178 59.0555 119.124 58.4237 118.95 57.82C118.715 56.8379 118.184 55.9514 117.43 55.28C116.694 54.67 115.792 54.294 114.84 54.2C113.73 54.0871 112.609 54.1924 111.54 54.51C110.608 54.7274 109.717 55.0919 108.9 55.59C108.308 55.9735 107.781 56.4495 107.34 57L108.43 61C108.883 60.2945 109.443 59.6636 110.09 59.13C110.701 58.6586 111.402 58.3181 112.15 58.13C112.712 57.9268 113.328 57.9268 113.89 58.13C114.13 58.2401 114.34 58.4053 114.503 58.6121C114.666 58.819 114.778 59.0615 114.83 59.32C114.945 59.726 114.979 60.1508 114.93 60.57C114.864 60.9753 114.732 61.3671 114.54 61.73C114.276 62.2207 113.982 62.6949 113.66 63.15C113.192 63.774 112.853 64.4843 112.66 65.24C112.516 65.9607 112.55 66.7056 112.76 67.41C112.837 67.6815 112.937 67.9459 113.06 68.2C113.177 68.4558 113.318 68.7002 113.48 68.93L116.98 67.93C116.826 67.7865 116.697 67.6173 116.6 67.43C116.484 67.2428 116.393 67.041 116.33 66.83ZM118.85 71.34C118.743 70.9496 118.52 70.6009 118.21 70.34C117.903 70.0661 117.525 69.8826 117.12 69.81C116.688 69.7309 116.243 69.7514 115.82 69.87C115.383 69.9859 114.979 70.2015 114.64 70.5C114.325 70.764 114.09 71.1102 113.96 71.5C113.833 71.8967 113.833 72.3232 113.96 72.72C114.074 73.1072 114.296 73.454 114.6 73.72C114.921 73.9937 115.306 74.1797 115.72 74.26C116.154 74.3644 116.606 74.3644 117.04 74.26C117.473 74.1477 117.874 73.9353 118.21 73.64C118.52 73.3752 118.748 73.0287 118.87 72.64C118.994 72.2144 118.987 71.7615 118.85 71.34Z" fill="#344A6A"/>
<path d="M32.16 98.84L7.15998 117.84C6.97864 117.977 6.82615 118.148 6.71131 118.344C6.59647 118.54 6.52155 118.756 6.49087 118.981C6.46019 119.206 6.47436 119.435 6.53256 119.655C6.59076 119.874 6.69185 120.08 6.82998 120.26L10.51 125C10.6475 125.182 10.8196 125.334 11.0164 125.449C11.2131 125.564 11.4306 125.639 11.6564 125.67C11.8822 125.701 12.1118 125.686 12.3321 125.628C12.5524 125.57 12.759 125.468 12.94 125.33L31.88 111L37.51 106C37.6913 105.863 37.8438 105.692 37.9586 105.496C38.0735 105.3 38.1484 105.084 38.1791 104.859C38.2098 104.634 38.1956 104.405 38.1374 104.185C38.0792 103.966 37.9781 103.76 37.84 103.58L34.58 99.17C34.4433 98.9886 34.2721 98.8362 34.0763 98.7213C33.8804 98.6065 33.6637 98.5316 33.4387 98.5009C33.2137 98.4702 32.9849 98.4844 32.7654 98.5426C32.546 98.6008 32.3402 98.7019 32.16 98.84Z" fill="#344A6A"/>
<path d="M34.5801 99.17L40.5301 94.17L44.3001 98.48L37.8401 103.58L34.5801 99.17Z" fill="#9DCFDB"/>
<path d="M55.41 102.64C64.8762 102.64 72.55 94.9661 72.55 85.5C72.55 76.0338 64.8762 68.36 55.41 68.36C45.9439 68.36 38.27 76.0338 38.27 85.5C38.27 94.9661 45.9439 102.64 55.41 102.64Z" fill="#9DCFDB"/>
<path d="M55.41 99.2C62.9763 99.2 69.11 93.0663 69.11 85.5C69.11 77.9337 62.9763 71.8 55.41 71.8C47.8437 71.8 41.71 77.9337 41.71 85.5C41.71 93.0663 47.8437 99.2 55.41 99.2Z" fill="#344A6A"/>
<path d="M45.22 89.3C44.9171 88.2773 44.7622 87.2165 44.76 86.15C44.76 85.92 44.76 85.69 44.76 85.46" stroke="white" stroke-width="2.14" stroke-miterlimit="10" stroke-linecap="round"/>
<path d="M46.1799 80.74C47.1383 79.0349 48.534 77.6163 50.2232 76.6302C51.9124 75.6441 53.834 75.1262 55.7899 75.13C56.7422 75.128 57.6904 75.2524 58.6099 75.5" stroke="white" stroke-width="2.14" stroke-miterlimit="10" stroke-linecap="round"/>
<path d="M39.0501 119.89L71.8701 154.27L73.8701 156.54L93.4301 177L93.7501 177.33L93.5701 177.63C93.1601 178.34 92.0301 180.25 90.4701 182.43C87.6001 186.43 83.3301 191.25 79.6001 191.07C73.2701 190.74 71.9701 188.07 71.9701 188.07L21.1501 130.87C16.9601 128.57 10.6001 119.43 8.6401 114.87C8.1101 113.95 7.9001 111.28 9.4501 110.12C10.0497 109.669 10.7801 109.427 11.5301 109.43C12.1509 109.38 12.7739 109.491 13.3401 109.75C13.2653 109.255 13.2982 108.749 13.4367 108.268C13.5752 107.786 13.816 107.341 14.1425 106.961C14.4691 106.581 14.8739 106.276 15.3291 106.067C15.7843 105.858 16.2792 105.75 16.7801 105.75C17.3054 105.752 17.824 105.868 18.3001 106.09C18.3677 105.624 18.5271 105.177 18.7692 104.773C19.0112 104.37 19.3311 104.019 19.7101 103.74C20.3308 103.275 21.0847 103.023 21.8601 103.02C22.636 103.02 23.3907 103.273 24.0101 103.74C23.8264 103.048 23.8561 102.317 24.0952 101.643C24.3343 100.968 24.7717 100.382 25.3501 99.96C25.9708 99.4953 26.7247 99.2428 27.5001 99.24C27.9521 99.2378 28.4002 99.3227 28.8201 99.49C29.2649 99.6576 29.6676 99.9204 30.0001 100.26C30.1558 100.394 30.2997 100.541 30.4301 100.7C32.7896 102.674 34.6529 105.175 35.8701 108C36.3001 109 36.6601 109.92 36.9701 110.85C37.9236 113.797 38.6196 116.822 39.0501 119.89Z" fill="#FDC1C2"/>
<path d="M13.3401 109.7L20.1201 119.35C20.4993 119.92 20.6366 120.618 20.5015 121.289C20.3665 121.96 19.9703 122.551 19.4001 122.93C18.8299 123.309 18.1324 123.446 17.461 123.311C16.7896 123.176 16.1993 122.78 15.8201 122.21" stroke="#EB9D9C" stroke-width="0.7" stroke-miterlimit="10"/>
<path d="M20.4301 108.99L18.3101 105.98" stroke="#EB9D9C" stroke-width="0.74" stroke-miterlimit="10"/>
<path d="M22.6801 112.19L25.3301 116C25.7014 116.631 25.8211 117.379 25.6654 118.094C25.5097 118.81 25.09 119.44 24.4901 119.86L24.1801 120.08C23.5483 120.524 22.7664 120.699 22.0056 120.568C21.2447 120.437 20.5668 120.01 20.1201 119.38L13.3401 109.73" stroke="#EB9D9C" stroke-width="0.74" stroke-miterlimit="10"/>
<path d="M20.4301 108.99L18.3101 105.98" stroke="#EB9D9C" stroke-width="0.71" stroke-miterlimit="10"/>
<path d="M25.42 105.73L23.96 103.66" stroke="#EB9D9C" stroke-width="0.71" stroke-miterlimit="10"/>
<path d="M22.6799 112.19L25.3299 116L25.7999 116.67C25.9984 116.952 26.2506 117.193 26.5422 117.377C26.8338 117.562 27.1589 117.687 27.499 117.745C27.8391 117.804 28.1874 117.795 28.5239 117.718C28.8604 117.642 29.1785 117.5 29.4599 117.3L30.0399 116.9C30.4007 116.645 30.6914 116.304 30.8854 115.907C31.0794 115.51 31.1704 115.071 31.1499 114.63" stroke="#EB9D9C" stroke-width="0.71" stroke-miterlimit="10"/>
<path d="M30.1701 112.48L28.5601 110.2" stroke="#EB9D9C" stroke-width="0.71" stroke-miterlimit="10"/>
<path d="M31.8299 102C31.8299 102 20.5099 108.39 19.5999 109.8C18.6899 111.21 23.0799 114.72 29.6899 109.37C29.6899 109.37 29.5699 114.37 32.8999 116.37" stroke="#EB9D9C" stroke-width="0.69" stroke-miterlimit="10"/>
<path d="M73.6001 156.2L90.2101 182.29L90.4701 182.41C92.0301 180.23 93.1601 178.32 93.5701 177.61L93.4301 176.98L73.6001 156.2Z" fill="#EB9D9C"/>
</g>
<defs>
<clipPath id="clip0_93_30">
<rect width="336.46" height="241.22" fill="white" class="svg-light"/>
</clipPath>
</defs>
</svg>
