<svg width="359" height="288" viewBox="0 0 359 288" fill="none" xmlns="http://www.w3.org/2000/svg">
<g clip-path="url(#clip0_93_208)">
<path d="M282.29 176.61C256.7 200.17 242.1 244.56 204.68 266.75L204.17 267.05C159.89 267.05 119.58 267.05 87.0199 267.05L86.4899 266.82C40.4899 246.38 44.3599 208.7 21.9999 166.35C-5.07008 114.92 -8.27008 94 18.5799 49.9C45.4299 5.80001 103.5 -18.98 157.58 17.9C211.66 54.78 251.23 43.34 284 72.06C316.77 100.78 321.1 140.89 282.29 176.61Z" fill="#E6EDF9" class="svg-light"/>
<path d="M188.81 264.03V199H263.59" stroke="#8C99AD" stroke-width="0.78" stroke-miterlimit="10"/>
<path d="M259.03 205.65H194.64V265.57" stroke="#8C99AD" stroke-width="0.78" stroke-miterlimit="10"/>
<path d="M207.44 238.33V211.7H211.63V217.19H217.22V214.72H222.22V217.71H228.96V211.7H235.86V215.74H239.57V213.39H246.23V229.07" stroke="#8C99AD" stroke-width="0.78" stroke-miterlimit="10"/>
<path d="M239.57 215.74V238.33" stroke="#8C99AD" stroke-width="0.78" stroke-miterlimit="10"/>
<path d="M236.39 219.12V223.15" stroke="#8C99AD" stroke-width="0.78" stroke-miterlimit="10"/>
<path d="M236.39 226.04V242.61" stroke="#8C99AD" stroke-width="0.78" stroke-miterlimit="10"/>
<path d="M228.96 217.72V232.6" stroke="#8C99AD" stroke-width="0.78" stroke-miterlimit="10"/>
<path d="M229.22 237.5V242.13" stroke="#8C99AD" stroke-width="0.78" stroke-miterlimit="10"/>
<path d="M222.22 217.72V226.04" stroke="#8C99AD" stroke-width="0.78" stroke-miterlimit="10"/>
<path d="M222.22 231.16V248.7" stroke="#8C99AD" stroke-width="0.78" stroke-miterlimit="10"/>
<path d="M217.22 217.19V237.86" stroke="#8C99AD" stroke-width="0.78" stroke-miterlimit="10"/>
<path d="M211.63 217.19V225.01" stroke="#8C99AD" stroke-width="0.78" stroke-miterlimit="10"/>
<path d="M211.63 229.07V247.66" stroke="#8C99AD" stroke-width="0.78" stroke-miterlimit="10"/>
<path d="M207.44 242.13V250.53" stroke="#8C99AD" stroke-width="0.78" stroke-miterlimit="10"/>
<path d="M198.8 250.53H249.64" stroke="#8C99AD" stroke-width="0.78" stroke-miterlimit="10"/>
<path d="M239.57 250.53V245.15" stroke="#8C99AD" stroke-width="0.78" stroke-miterlimit="10"/>
<path d="M229.22 246.57V250.28" stroke="#8C99AD" stroke-width="0.78" stroke-miterlimit="10"/>
<path d="M246.8 220.28H249.23" stroke="#8C99AD" stroke-width="0.78" stroke-miterlimit="10"/>
<path d="M199 255.21H246.23" stroke="#8C99AD" stroke-width="0.78" stroke-miterlimit="10"/>
<path d="M33.1199 158.59V46.02H42.6899" stroke="#8C99AD" stroke-width="0.78" stroke-miterlimit="10"/>
<path d="M33.1199 176.99V172.89" stroke="#8C99AD" stroke-width="0.78" stroke-miterlimit="10"/>
<path d="M67.3099 46.02H166.08V191.4H33.1199" stroke="#8C99AD" stroke-width="0.78" stroke-miterlimit="10"/>
<path d="M55.2 46.02H63.88" stroke="#8C99AD" stroke-width="0.78" stroke-miterlimit="10"/>
<path d="M161.08 51.01H38.1199V186.41H161.08V51.01Z" stroke="#8C99AD" stroke-width="0.78" stroke-miterlimit="10"/>
<path d="M155.36 60.51V113.17H43.8298V108.37" stroke="#8C99AD" stroke-width="0.78" stroke-miterlimit="10"/>
<path d="M43.8298 97.11V56.24H155.36" stroke="#8C99AD" stroke-width="0.78" stroke-miterlimit="10"/>
<path d="M43.8398 104.68V100" stroke="#8C99AD" stroke-width="0.78" stroke-miterlimit="10"/>
<path d="M136.53 118.71H161.08" stroke="#8C99AD" stroke-width="0.78" stroke-miterlimit="10"/>
<path d="M127.8 118.71H131.27" stroke="#8C99AD" stroke-width="0.78" stroke-miterlimit="10"/>
<path d="M38.1199 118.71H123.65" stroke="#8C99AD" stroke-width="0.78" stroke-miterlimit="10"/>
<path d="M93.4199 113.17V110.64H103.7V112.08H99.5999V113.17" stroke="#8C99AD" stroke-width="0.78" stroke-miterlimit="10"/>
<path d="M38.3298 164.09C38.3298 164.09 40.0298 165.39 41.2298 173.19C41.2298 173.19 43.2998 160.72 45.7998 160.53C48.2998 160.34 47.7998 168.64 47.7998 168.64C47.7998 168.64 48.2098 164.55 50.1698 164.73C52.1298 164.91 50.1698 173.19 50.1698 173.19C50.1698 173.19 52.5298 166.74 54.7498 166.86C56.9698 166.98 53.2798 178.54 53.2798 178.54C53.2798 178.54 58.9898 174.4 61.2798 176.43C63.5698 178.46 59.9998 183.56 59.9998 183.56C59.9998 183.56 68.1998 181.78 69.4698 186.56" stroke="#8C99AD" stroke-width="0.78" stroke-miterlimit="10"/>
<path d="M69.49 181.93C69.49 181.93 73.07 179.59 75.87 180.68C75.87 180.68 74.09 177.96 75.87 176.29C77.65 174.62 80 180.68 80 180.68C80 180.68 80.26 170.54 83.83 171.05C87.4 171.56 83.83 180.68 83.83 180.68C83.83 180.68 90.17 175 91.7 177C93.23 179 90.7 181.94 90.7 181.94C91.853 181.611 93.0717 181.589 94.2361 181.875C95.4004 182.161 96.4702 182.745 97.34 183.57C97.34 183.57 101.62 179.21 106.34 178.57C106.34 178.57 103.18 169.39 104.72 167.57C106.26 165.75 109.03 175.57 109.03 175.57C109.03 175.57 110.25 169.15 114.24 168.66C114.24 168.66 110.91 166.85 111.9 164.11C112.89 161.37 117.48 164.76 117.48 164.76C117.48 164.76 115.59 159.94 118.58 158.62C121.57 157.3 122.81 162.62 122.81 162.62C122.81 162.62 123.64 157.01 127.15 157.32C130.66 157.63 129.53 164.09 129.53 164.09C129.53 164.09 132.84 158.93 134.61 159.48C138.15 160.48 137.08 168.64 137.08 168.64C137.08 168.64 142.03 165.2 143.3 166.78C144.57 168.36 138.14 172.89 138.14 172.89C138.14 172.89 143.05 173.43 146.14 176.29" stroke="#8C99AD" stroke-width="0.78" stroke-miterlimit="10"/>
<path d="M161.08 166C161.08 166 160.52 160.83 155.36 160.58C150.2 160.33 156.78 171.87 156.78 171.87C156.78 171.87 152.53 168.35 151.01 169.44C149.49 170.53 155.36 176.44 155.36 176.44C155.36 176.44 152.54 173.86 149.55 174.64C146.56 175.42 151.25 183.74 151.25 183.74C146.836 182.844 142.251 183.376 138.16 185.26" stroke="#8C99AD" stroke-width="0.78" stroke-miterlimit="10"/>
<path d="M358.56 266.91C358.65 266.91 358.56 267.05 232.98 267.05H204.17C159.89 267.05 119.58 267.05 87.0199 267.05C37.2599 267.05 5.60986 266.99 5.60986 266.94C5.60986 266.89 37.0299 266.84 86.4899 266.82C119.26 266.82 159.96 266.82 204.68 266.82H233C358.52 266.74 256.73 266.91 358.56 266.91Z" fill="#263238"/>
<path d="M170.66 274.45H278.93C278.93 275.511 278.508 276.528 277.758 277.278C277.008 278.029 275.991 278.45 274.93 278.45H180.38C179.959 278.444 179.541 278.376 179.14 278.25L170.51 275.46C170.443 275.44 170.38 275.408 170.326 275.364C170.271 275.32 170.226 275.266 170.193 275.205C170.159 275.144 170.138 275.076 170.131 275.007C170.124 274.937 170.13 274.867 170.15 274.8C170.189 274.696 170.259 274.607 170.35 274.545C170.441 274.482 170.549 274.449 170.66 274.45Z" fill="#435C82" stroke="#263238" stroke-width="0.76" stroke-miterlimit="10"/>
<path d="M170.66 274.45H278.93C278.93 275.511 278.508 276.528 277.758 277.278C277.008 278.029 275.991 278.45 274.93 278.45H180.38C179.959 278.444 179.541 278.376 179.14 278.25L170.51 275.46C170.443 275.44 170.38 275.408 170.326 275.364C170.271 275.32 170.226 275.266 170.193 275.205C170.159 275.144 170.138 275.076 170.131 275.007C170.124 274.937 170.13 274.867 170.15 274.8C170.189 274.696 170.259 274.607 170.35 274.545C170.441 274.482 170.549 274.449 170.66 274.45Z" stroke="#263238" stroke-width="0.76" stroke-linecap="round" stroke-linejoin="round"/>
<path d="M205.33 274.45C205.33 275.246 205.646 276.009 206.209 276.571C206.771 277.134 207.534 277.45 208.33 277.45H219.83" stroke="#263238" stroke-width="0.76" stroke-linecap="round" stroke-linejoin="round"/>
<path d="M300.62 224.71V224.81L286.52 273.87C286.308 274.504 285.906 275.057 285.37 275.456C284.834 275.855 284.188 276.079 283.52 276.1H210.09C209.872 276.119 209.653 276.095 209.445 276.029C209.237 275.962 209.044 275.855 208.877 275.714C208.711 275.573 208.574 275.4 208.475 275.205C208.376 275.01 208.316 274.798 208.3 274.58C208.278 274.339 208.312 274.096 208.4 273.87L222.48 224.81C222.691 224.175 223.092 223.621 223.629 223.222C224.165 222.823 224.811 222.599 225.48 222.58H298.94C299.373 222.544 299.803 222.68 300.136 222.959C300.469 223.238 300.679 223.637 300.72 224.07C300.728 224.288 300.694 224.505 300.62 224.71Z" fill="#435C82"/>
<mask id="mask0_93_208" style="mask-type:luminance" maskUnits="userSpaceOnUse" x="208" y="222" width="93" height="55">
<path d="M300.62 224.71V224.81L286.52 273.87C286.308 274.504 285.906 275.057 285.37 275.456C284.834 275.855 284.188 276.079 283.52 276.1H210.09C209.872 276.119 209.653 276.095 209.445 276.029C209.237 275.962 209.044 275.855 208.877 275.714C208.711 275.573 208.574 275.4 208.475 275.205C208.376 275.01 208.316 274.798 208.3 274.58C208.278 274.339 208.312 274.096 208.4 273.87L222.48 224.81C222.691 224.175 223.092 223.621 223.629 223.222C224.165 222.823 224.811 222.599 225.48 222.58H298.94C299.373 222.544 299.803 222.68 300.136 222.959C300.469 223.238 300.679 223.637 300.72 224.07C300.728 224.288 300.694 224.505 300.62 224.71Z" fill="white" class="svg-light"/>
</mask>
<g mask="url(#mask0_93_208)">
<path opacity="0.4" d="M300.62 224.71V224.81L286.52 273.87C286.308 274.504 285.906 275.057 285.37 275.456C284.833 275.855 284.188 276.079 283.52 276.1H210.52V276L224.65 227C224.863 226.366 225.264 225.812 225.8 225.412C226.336 225.011 226.981 224.784 227.65 224.76L300.62 224.71Z" fill="white" class="svg-light"/>
</g>
<path d="M300.62 224.71V224.81L286.52 273.87C286.308 274.504 285.906 275.057 285.37 275.456C284.834 275.855 284.188 276.079 283.52 276.1H210.09C209.872 276.119 209.653 276.095 209.445 276.029C209.237 275.962 209.044 275.855 208.877 275.714C208.711 275.573 208.574 275.4 208.475 275.205C208.376 275.01 208.316 274.798 208.3 274.58C208.278 274.339 208.312 274.096 208.4 273.87L222.48 224.81C222.691 224.175 223.092 223.621 223.629 223.222C224.165 222.823 224.811 222.599 225.48 222.58H298.94C299.373 222.544 299.803 222.68 300.136 222.959C300.469 223.238 300.679 223.637 300.72 224.07C300.728 224.288 300.694 224.505 300.62 224.71Z" stroke="#263238" stroke-width="0.76" stroke-linecap="round" stroke-linejoin="round"/>
<path d="M211 273.7L224.75 225.81C224.872 225.443 225.103 225.122 225.412 224.89C225.721 224.657 226.094 224.525 226.48 224.51H297.68" stroke="#263238" stroke-width="0.76" stroke-linecap="round" stroke-linejoin="round"/>
<path opacity="0.2" d="M278.93 274.45C278.927 275.521 278.503 276.549 277.75 277.31L277.63 277.41C276.89 278.103 275.914 278.489 274.9 278.49H180.38C179.959 278.484 179.541 278.416 179.14 278.29L170.51 275.5C170.443 275.481 170.38 275.448 170.326 275.404C170.271 275.36 170.226 275.306 170.193 275.245C170.159 275.184 170.138 275.116 170.131 275.047C170.124 274.977 170.13 274.907 170.15 274.84C170.184 274.727 170.255 274.627 170.35 274.557C170.446 274.487 170.561 274.449 170.68 274.45H278.93Z" fill="black" fill-opacity="0.7"/>
<path opacity="0.2" d="M278.93 274.45C278.927 275.521 278.504 276.549 277.75 277.31L277.63 277.41H208.3C207.504 277.41 206.741 277.094 206.179 276.531C205.616 275.969 205.3 275.206 205.3 274.41L278.93 274.45Z" fill="black" fill-opacity="0.7"/>
<path d="M183.36 278.49H165.54C165.054 278.485 164.589 278.287 164.248 277.941C163.907 277.594 163.717 277.126 163.72 276.64V276.3C163.717 275.814 163.907 275.346 164.248 274.999C164.589 274.653 165.054 274.455 165.54 274.45H183.36" fill="#435C82"/>
<path d="M183.36 278.49H165.54C165.054 278.485 164.589 278.287 164.248 277.941C163.907 277.594 163.717 277.126 163.72 276.64V276.3C163.717 275.814 163.907 275.346 164.248 274.999C164.589 274.653 165.054 274.455 165.54 274.45H183.36" stroke="#263238" stroke-width="0.76" stroke-miterlimit="10"/>
<path d="M352.44 49.15H197.8V155.99H352.44V49.15Z" fill="#F5F5F5" class="svg-dark" stroke="#263238" stroke-width="0.65" stroke-linecap="round" stroke-linejoin="round"/>
<path d="M352.44 49.15H197.8V59.71H352.44V49.15Z" fill="#435C82"/>
<path d="M352.44 155.84H197.8V166.76H352.44V155.84Z" fill="#8D9BB0" stroke="#263238" stroke-width="0.65" stroke-linecap="round" stroke-linejoin="round"/>
<path d="M264.82 159.21H261.9C261.552 159.21 261.27 159.492 261.27 159.84V162.76C261.27 163.108 261.552 163.39 261.9 163.39H264.82C265.168 163.39 265.45 163.108 265.45 162.76V159.84C265.45 159.492 265.168 159.21 264.82 159.21Z" stroke="#263238" stroke-width="0.32" stroke-linecap="round" stroke-linejoin="round"/>
<path d="M272.66 159.21H269.74C269.392 159.21 269.11 159.492 269.11 159.84V162.76C269.11 163.108 269.392 163.39 269.74 163.39H272.66C273.008 163.39 273.29 163.108 273.29 162.76V159.84C273.29 159.492 273.008 159.21 272.66 159.21Z" stroke="#263238" stroke-width="0.32" stroke-linecap="round" stroke-linejoin="round"/>
<path d="M280.5 159.21H277.58C277.232 159.21 276.95 159.492 276.95 159.84V162.76C276.95 163.108 277.232 163.39 277.58 163.39H280.5C280.848 163.39 281.13 163.108 281.13 162.76V159.84C281.13 159.492 280.848 159.21 280.5 159.21Z" stroke="#263238" stroke-width="0.32" stroke-linecap="round" stroke-linejoin="round"/>
<path d="M288.34 159.21H285.42C285.072 159.21 284.79 159.492 284.79 159.84V162.76C284.79 163.108 285.072 163.39 285.42 163.39H288.34C288.688 163.39 288.97 163.108 288.97 162.76V159.84C288.97 159.492 288.688 159.21 288.34 159.21Z" stroke="#263238" stroke-width="0.32" stroke-linecap="round" stroke-linejoin="round"/>
<path d="M296.18 159.21H293.26C292.912 159.21 292.63 159.492 292.63 159.84V162.76C292.63 163.108 292.912 163.39 293.26 163.39H296.18C296.528 163.39 296.81 163.108 296.81 162.76V159.84C296.81 159.492 296.528 159.21 296.18 159.21Z" stroke="#263238" stroke-width="0.32" stroke-linecap="round" stroke-linejoin="round"/>
<path d="M256.98 159.21H254.06C253.712 159.21 253.43 159.492 253.43 159.84V162.76C253.43 163.108 253.712 163.39 254.06 163.39H256.98C257.328 163.39 257.61 163.108 257.61 162.76V159.84C257.61 159.492 257.328 159.21 256.98 159.21Z" stroke="#263238" stroke-width="0.32" stroke-linecap="round" stroke-linejoin="round"/>
<path d="M202.5 54.4301H229.99" stroke="#9FACBE" stroke-width="0.65" stroke-linecap="round" stroke-linejoin="round"/>
<path d="M346.25 54.43C346.218 54.8364 346.034 55.2158 345.735 55.4925C345.435 55.7692 345.043 55.9229 344.635 55.9229C344.227 55.9229 343.835 55.7692 343.535 55.4925C343.236 55.2158 343.052 54.8364 343.02 54.43C343.002 54.2073 343.031 53.9833 343.104 53.7722C343.178 53.561 343.294 53.3673 343.445 53.2032C343.597 53.0391 343.781 52.9082 343.986 52.8186C344.19 52.7291 344.411 52.6829 344.635 52.6829C344.858 52.6829 345.079 52.7291 345.284 52.8186C345.489 52.9082 345.673 53.0391 345.825 53.2032C345.976 53.3673 346.092 53.561 346.166 53.7722C346.239 53.9833 346.267 54.2073 346.25 54.43Z" fill="#9FACBE" stroke="#9FACBE" stroke-width="0.65" stroke-linecap="round" stroke-linejoin="round"/>
<path d="M334.35 162.42H344.01" stroke="#263238" stroke-width="0.63" stroke-linecap="round" stroke-linejoin="round"/>
<path d="M333.63 160.18H344.72" stroke="#263238" stroke-width="0.63" stroke-linecap="round" stroke-linejoin="round"/>
<path d="M330.3 71.08H219.93C218.378 71.08 217.12 72.3381 217.12 73.89V130.71C217.12 132.262 218.378 133.52 219.93 133.52H330.3C331.852 133.52 333.11 132.262 333.11 130.71V73.89C333.11 72.3381 331.852 71.08 330.3 71.08Z" fill="white" class="svg-light"/>
<path d="M219.93 71.08H221.35V133.52H219.93C219.185 133.52 218.47 133.224 217.943 132.697C217.416 132.17 217.12 131.455 217.12 130.71V73.89C217.12 73.1448 217.416 72.43 217.943 71.903C218.47 71.3761 219.185 71.08 219.93 71.08Z" fill="#435C82"/>
<path d="M227.39 81.4H245.49" stroke="#C0C3C8" stroke-width="3" stroke-miterlimit="10" stroke-linecap="round"/>
<path d="M227.39 91.62H260.67" stroke="#C0C3C8" stroke-width="1.5" stroke-miterlimit="10" stroke-linecap="round"/>
<path d="M227.39 113.32H312.4" stroke="#C0C3C8" stroke-width="1.5" stroke-miterlimit="10" stroke-linecap="round"/>
<path d="M231.57 97.45H295.57" stroke="#C0C3C8" stroke-width="1.5" stroke-miterlimit="10" stroke-linecap="round"/>
<path d="M231.57 102.3H267.04" stroke="#C0C3C8" stroke-width="1.5" stroke-miterlimit="10" stroke-linecap="round"/>
<path d="M231.57 107.16H254.95" stroke="#C0C3C8" stroke-width="1.5" stroke-miterlimit="10" stroke-linecap="round"/>
<path d="M231.57 124H248.21" stroke="#C0C3C8" stroke-width="1.5" stroke-miterlimit="10" stroke-linecap="round"/>
<path d="M231.57 119.3H270.91" stroke="#C0C3C8" stroke-width="1.5" stroke-miterlimit="10" stroke-linecap="round"/>
<path opacity="0.8" d="M204.56 160.91H202.13V159.35C202.13 159.114 202.224 158.888 202.391 158.721C202.557 158.554 202.784 158.46 203.02 158.46H204.53L204.56 160.91Z" fill="#64707D"/>
<path opacity="0.8" d="M204.58 163.81H203C202.764 163.81 202.537 163.716 202.371 163.549C202.204 163.382 202.11 163.156 202.11 162.92V161.41H204.54L204.58 163.81Z" fill="#64707D"/>
<path opacity="0.8" d="M207.45 161.36V162.92C207.451 163.036 207.429 163.152 207.386 163.26C207.342 163.368 207.277 163.466 207.196 163.549C207.114 163.632 207.016 163.697 206.909 163.742C206.801 163.787 206.686 163.81 206.57 163.81H205.06V161.38L207.45 161.36Z" fill="#64707D"/>
<path opacity="0.8" d="M207.45 159.37V160.88H205.03V158.45H206.59C206.707 158.453 206.823 158.479 206.93 158.526C207.037 158.574 207.133 158.643 207.214 158.729C207.294 158.815 207.356 158.915 207.396 159.026C207.437 159.136 207.455 159.253 207.45 159.37Z" fill="#64707D"/>
<path d="M57.1199 266.19L107.75 287.85L161.62 283.26L112.43 265.18L57.1199 266.19Z" fill="#F5F5F5" class="svg-dark"/>
<path d="M105.9 283.26L105.72 279.17L157.97 276.27V279.64L105.9 283.26Z" fill="#E0E0E0"/>
<path d="M154.09 278.18C154.09 278.28 143.35 279.09 130.09 279.98C116.83 280.87 106.09 281.54 106.09 281.45C106.09 281.36 116.83 280.55 130.09 279.65C143.35 278.75 154.08 278.09 154.09 278.18Z" fill="#263238"/>
<path d="M105.8 279.64L72.5898 266.49L72.5298 268.96L105.9 283.19L105.8 279.64Z" fill="#E0E0E0"/>
<path d="M72.5898 266.49L105.8 279.64L157.97 276.27L118.42 264.74L72.5898 266.49Z" fill="white" class="svg-light"/>
<path d="M72.5999 266.48L118.41 264.59L158 276.09C158.02 276.096 158.039 276.105 158.056 276.119C158.073 276.132 158.087 276.148 158.097 276.167C158.107 276.186 158.113 276.206 158.116 276.227C158.118 276.248 158.116 276.27 158.11 276.29C158.1 276.324 158.081 276.354 158.054 276.378C158.028 276.401 157.995 276.415 157.96 276.42H157.5L105.8 279.73H105.73L72.5999 266.45L105.85 279.51L157.53 276.13H158V276.46L118.37 264.9L72.5999 266.48Z" fill="#263238"/>
<path d="M105.9 283.26C105.68 282.063 105.68 280.837 105.9 279.64C106.12 280.837 106.12 282.063 105.9 283.26Z" fill="#263238"/>
<path d="M141.49 273.81C141.49 273.9 133.49 274.45 123.61 275.02C113.73 275.59 105.72 276.02 105.71 275.91C105.7 275.8 113.71 275.26 123.59 274.69C133.47 274.12 141.48 273.71 141.49 273.81Z" fill="#263238"/>
<path d="M137.1 272.38C137.1 272.47 129.1 273.02 119.22 273.6C109.34 274.18 101.34 274.6 101.34 274.48C101.34 274.36 109.34 273.84 119.22 273.26C129.1 272.68 137.1 272.29 137.1 272.38Z" fill="#263238"/>
<path d="M132.72 270.92C132.72 271.02 124.72 271.57 114.84 272.14C104.96 272.71 96.9399 273.14 96.9399 273.02C96.9399 272.9 104.94 272.38 114.82 271.8C124.7 271.22 132.71 270.85 132.72 270.92Z" fill="#263238"/>
<path d="M128.33 269.52C128.33 269.61 120.33 270.16 110.45 270.74C100.57 271.32 92.5598 271.74 92.5498 271.62C92.5398 271.5 100.55 270.97 110.43 270.4C120.31 269.83 128.32 269.43 128.33 269.52Z" fill="#263238"/>
<path d="M123.92 268.09C123.92 268.18 115.92 268.73 106.05 269.31C96.1799 269.89 88.1499 270.31 88.1499 270.19C88.1499 270.07 96.1499 269.54 106.03 268.97C115.91 268.4 123.92 268 123.92 268.09Z" fill="#263238"/>
<path d="M119.55 266.66C119.55 266.75 111.55 267.3 101.68 267.88C91.8098 268.46 83.7798 268.88 83.7798 268.76C83.7798 268.64 91.7798 268.11 101.66 267.54C111.54 266.97 119.55 266.57 119.55 266.66Z" fill="#263238"/>
<path d="M165.3 216.59L146.72 241.44C146.711 241.449 146.701 241.456 146.69 241.461C146.679 241.465 146.667 241.468 146.655 241.468C146.643 241.468 146.631 241.465 146.62 241.461C146.608 241.456 146.598 241.449 146.59 241.44L136.67 232.92C136.657 232.911 136.643 232.906 136.628 232.905C136.613 232.903 136.597 232.905 136.583 232.911C136.569 232.917 136.557 232.927 136.548 232.939C136.538 232.951 136.532 232.965 136.53 232.98L134.67 257.38L135.11 264.24C135.113 264.252 135.113 264.265 135.111 264.277C135.108 264.289 135.103 264.3 135.095 264.31C135.087 264.32 135.077 264.327 135.066 264.333C135.055 264.338 135.042 264.34 135.03 264.34H53.4499C53.4251 264.337 53.4022 264.326 53.3855 264.307C53.3689 264.289 53.3597 264.265 53.3598 264.24L55.9998 233.76C55.9923 233.745 55.9808 233.733 55.9667 233.724C55.9526 233.716 55.9364 233.711 55.9198 233.711C55.9033 233.711 55.8871 233.716 55.873 233.724C55.8589 233.733 55.8474 233.745 55.8399 233.76L50.9998 241.2C50.985 241.214 50.9653 241.222 50.9448 241.222C50.9244 241.222 50.9047 241.214 50.8898 241.2C49.3898 240.25 25.1198 224.82 23.3598 223.96C23.3513 223.952 23.3445 223.943 23.3398 223.933C23.3352 223.923 23.3328 223.911 23.3328 223.9C23.3328 223.889 23.3352 223.877 23.3398 223.867C23.3445 223.857 23.3513 223.847 23.3598 223.84C24.6398 222.05 45.2699 193.29 48.2399 190.07C53.0199 184.82 63.7998 183.07 64.3898 182.98L87.9398 179.29L113.79 183.29L123.27 185.35C123.41 185.35 131.19 185.88 141.65 195.67C144.26 198.1 164.03 215.39 165.27 216.47C165.289 216.482 165.303 216.502 165.309 216.524C165.314 216.546 165.311 216.57 165.3 216.59Z" fill="#465C7F" stroke="#2B353A" stroke-width="0.76" stroke-miterlimit="10"/>
<path d="M162.06 213.65L143.59 238.87" stroke="#344A6A" stroke-width="0.78" stroke-miterlimit="10"/>
<path d="M26.0798 220.02L53.3598 237.53" stroke="#344A6A" stroke-width="0.78" stroke-miterlimit="10"/>
<path d="M82.3599 180.16C83.2999 186.06 86.2199 196.29 99.6199 196.29C111.01 196.29 114.38 188.55 115.77 183.72" stroke="#344A6A" stroke-width="0.85" stroke-miterlimit="10"/>
<path d="M137.69 212.57C137.7 212.683 137.7 212.797 137.69 212.91C137.707 213.243 137.707 213.577 137.69 213.91C137.64 214.8 137.57 216.04 137.49 217.56C137.29 220.67 137.02 224.91 136.71 229.56C136.4 234.21 136.07 238.48 135.86 241.56C135.74 243.08 135.64 244.31 135.57 245.21C135.57 245.61 135.5 245.94 135.48 246.21C135.473 246.328 135.456 246.445 135.43 246.56C135.409 246.444 135.409 246.326 135.43 246.21C135.413 245.877 135.413 245.543 135.43 245.21C135.43 244.32 135.55 243.09 135.64 241.57C135.84 238.46 136.11 234.22 136.41 229.57C136.71 224.92 137.05 220.66 137.27 217.57C137.38 216.06 137.49 214.82 137.56 213.93C137.567 213.595 137.597 213.261 137.65 212.93C137.652 212.809 137.666 212.689 137.69 212.57Z" fill="#263238"/>
<path d="M137.93 209.5C137.93 209.9 136.56 230.15 136.54 230.5C140 223.86 141.07 216.31 137.93 209.5Z" fill="#354258"/>
<path d="M55.2698 242.2C61.0798 237.29 61.7198 229.78 61.0798 222.2L56.0798 232.2L55.2698 242.2Z" fill="#354258"/>
<path d="M68.6799 209.05C68.7552 208.675 68.8521 208.304 68.9699 207.94C69.2276 206.933 69.4213 205.911 69.5499 204.88C69.7414 203.354 69.7682 201.812 69.6299 200.28C69.4981 198.408 68.9914 196.582 68.1399 194.91C67.2194 193.27 66.01 191.81 64.5699 190.6C63.3976 189.613 62.0955 188.792 60.6999 188.16C59.3947 187.6 58.0384 187.168 56.6499 186.87C56.7489 186.85 56.8509 186.85 56.9499 186.87C57.2332 186.882 57.5146 186.922 57.7899 186.99C58.819 187.192 59.8244 187.5 60.7899 187.91C62.2353 188.515 63.5833 189.33 64.7899 190.33C66.2759 191.57 67.5143 193.08 68.4399 194.78C69.3134 196.491 69.8273 198.363 69.9499 200.28C70.0669 201.835 70.0132 203.397 69.7899 204.94C69.6419 205.981 69.4078 207.008 69.0899 208.01C69.0161 208.283 68.9225 208.55 68.8099 208.81C68.7399 209 68.6999 209.05 68.6799 209.05Z" fill="#263238"/>
<path d="M122.76 150.21C123.777 146.197 123.726 141.987 122.61 138C140.87 129.41 140.61 94.83 93.43 116.35C93.43 116.35 78.11 111.5 80.25 118.09C80.25 118.09 59 134.67 86.39 166.42L122.76 150.21Z" fill="#344A6A"/>
<path d="M122.56 162.83C121.83 172 112.82 175.38 112.82 175.38V179.69L112.72 180.9C112.66 182.4 111.8 193.26 99.4399 193.26C86.2499 193.26 85.6099 179.69 85.6099 179.69L86.9999 154.28H80.2499C70.9399 150.15 74.9999 135.93 86.9999 138.9V145C86.9999 145 86.9199 146.18 89.1999 145.54L95.7899 136.44C95.7899 136.44 111.06 139.54 120.51 138.55C120.48 138.53 123.78 141.26 122.56 162.83Z" fill="#FDC1C2"/>
<path d="M112.82 175.39H99.9299C103.324 178.807 107.906 180.781 112.72 180.9L112.82 175.39Z" fill="#EAA2A2"/>
<path d="M78.2399 147.89C78.2399 147.89 76.8199 141.62 84.0599 141.89" stroke="#EAA2A2" stroke-width="1.02" stroke-miterlimit="10"/>
<path d="M100.99 152.87C101.514 152.87 101.94 151.975 101.94 150.87C101.94 149.765 101.514 148.87 100.99 148.87C100.465 148.87 100.04 149.765 100.04 150.87C100.04 151.975 100.465 152.87 100.99 152.87Z" fill="#344A6A"/>
<path d="M118.65 153.37C119.175 153.37 119.6 152.475 119.6 151.37C119.6 150.265 119.175 149.37 118.65 149.37C118.125 149.37 117.7 150.265 117.7 151.37C117.7 152.475 118.125 153.37 118.65 153.37Z" fill="#344A6A"/>
<path d="M104.07 145C103.78 145.47 101.94 144.86 99.6698 144.69C97.3998 144.52 95.4898 144.78 95.2798 144.26C95.1898 144.01 95.5998 143.61 96.4298 143.26C97.515 142.841 98.6814 142.674 99.8406 142.773C101 142.872 102.121 143.233 103.12 143.83C103.88 144.23 104.21 144.71 104.07 145Z" fill="#344A6A"/>
<path d="M121.77 146.12C121.35 146.54 119.77 146.03 117.9 145.93C116.03 145.83 114.4 146.1 114.03 145.63C113.87 145.41 114.15 144.99 114.86 144.63C115.842 144.168 116.926 143.961 118.01 144.029C119.094 144.098 120.143 144.438 121.06 145.02C121.75 145.45 122 145.91 121.77 146.12Z" fill="#344A6A"/>
<path d="M102.58 163.45C102.87 163.45 102.87 165.39 104.51 166.82C106.15 168.25 108.29 168.02 108.3 168.3C108.3 168.42 107.83 168.68 106.94 168.69C105.787 168.707 104.665 168.309 103.78 167.57C102.926 166.867 102.381 165.859 102.26 164.76C102.22 163.93 102.45 163.44 102.58 163.45Z" fill="#EAA2A2"/>
<path d="M110.36 152.31L113.5 158.73L109.36 161.3" stroke="#EAA2A2" stroke-width="0.8" stroke-miterlimit="10"/>
<path d="M108.13 251.89L125.77 251.04C125.77 251.04 129.2 252.98 130.09 258.59C130.98 264.2 130.09 264.19 130.09 264.19L121.21 267.19L102.35 266.75L95.5298 258.17L100.69 255.12L108.13 251.89Z" fill="#FDC1C2"/>
<path d="M183.22 241.18C182.28 239.56 176.9 233.18 163.54 219.56L147.62 240.86L151.81 243.6L122.46 251.89L124.91 266.21H173.56C179.83 266 191.38 255.35 183.22 241.18Z" fill="#FDC1C2"/>
<path d="M110.78 257.8C110.676 257.542 110.503 257.317 110.28 257.15L107.22 254.43L105.45 259.71C106.209 260.279 107.159 260.53 108.1 260.41C108.565 260.347 109.013 260.193 109.418 259.956C109.823 259.719 110.177 259.405 110.46 259.03C110.612 258.868 110.722 258.671 110.778 258.456C110.834 258.241 110.834 258.015 110.78 257.8Z" fill="#EAA2A2"/>
<path d="M72.5499 230.32L109 264.17L112.44 265.79L114.35 266.79L113.46 265.14L111.68 261.83L74.7799 227.93C74.48 227.65 74.0851 227.495 73.6749 227.495C73.2647 227.495 72.8698 227.65 72.5699 227.93C72.2531 228.222 72.064 228.627 72.0434 229.057C72.0228 229.488 72.1724 229.909 72.4599 230.23L72.5499 230.32Z" fill="#455A64"/>
<path d="M73.23 249.35L76.09 249.86C76.09 249.86 90.88 244.39 93 244.12C94.63 243.91 102.42 245.73 105.87 246.58C106.549 246.73 107.154 247.112 107.583 247.659C108.011 248.206 108.236 248.885 108.22 249.58V249.64C108.176 250.21 107.97 250.756 107.627 251.213C107.283 251.67 106.816 252.02 106.28 252.22C106.677 252.338 107.042 252.545 107.348 252.824C107.654 253.104 107.892 253.449 108.045 253.834C108.198 254.219 108.262 254.634 108.232 255.047C108.201 255.46 108.078 255.861 107.87 256.22C106.87 258.5 103.87 258.15 103.87 258.15L98.75 258.26C98.75 258.26 100.04 258.64 102.02 259.11C102.951 259.268 103.854 259.561 104.7 259.98C104.7 259.98 107.79 262.98 104.8 264.19C103.825 264.64 102.75 264.83 101.68 264.74C101.68 264.74 102.58 267.97 100.18 268.49C97.78 269.01 82 267.84 82 267.84C80.9751 267.401 79.8827 267.141 78.77 267.07L74.32 266.76L73.23 249.35Z" fill="#FDC1C2"/>
<path d="M106.06 252.24C104.703 252.255 103.346 252.175 102 252C100.657 251.919 99.3206 251.748 98 251.49C99.3572 251.48 100.713 251.56 102.06 251.73C103.403 251.816 104.739 251.986 106.06 252.24Z" fill="#EAA2A2"/>
<path d="M90.08 266.77C90.08 266.77 89.85 266.77 89.6 266.46C89.2706 266.109 89.0792 265.65 89.0608 265.169C89.0424 264.687 89.1984 264.216 89.5 263.84C89.73 263.56 89.95 263.47 89.96 263.49C89.97 263.51 89.83 263.67 89.66 263.95C89.4316 264.311 89.3167 264.733 89.33 265.16C89.3538 265.585 89.4996 265.995 89.75 266.34C89.93 266.6 90.11 266.74 90.08 266.77Z" fill="#EAA2A2"/>
<path d="M89.8399 261.41C89.8399 261.41 89.5699 261.41 89.1999 261.19C88.7764 260.9 88.485 260.454 88.3894 259.95C88.2938 259.446 88.4019 258.925 88.6899 258.5C88.7477 258.416 88.8112 258.336 88.8799 258.26C89.1699 257.95 89.4299 257.88 89.4399 257.91C89.4499 257.94 89.2499 258.08 89.0199 258.39C88.7199 258.784 88.5836 259.278 88.6395 259.77C88.6954 260.262 88.9392 260.713 89.3199 261.03C89.6199 261.29 89.8599 261.37 89.8399 261.41Z" fill="#EAA2A2"/>
<path d="M89.7499 255.18C89.5332 255.053 89.3512 254.874 89.2199 254.66C88.8826 254.144 88.7538 253.52 88.8596 252.912C88.9654 252.305 89.298 251.761 89.7899 251.39C90.1699 251.1 90.4399 251.05 90.4399 251.08C90.4399 251.11 90.1999 251.24 89.8799 251.53C89.4744 251.909 89.198 252.406 89.0899 252.95C88.9987 253.504 89.09 254.072 89.3499 254.57C89.5899 255 89.7899 255.15 89.7499 255.18Z" fill="#EAA2A2"/>
<path d="M91.6599 247.17C91.5518 247.11 91.4672 247.014 91.4199 246.9C91.3148 246.619 91.3148 246.31 91.4199 246.03C91.4948 245.74 91.668 245.486 91.9099 245.31C92.1099 245.18 92.2599 245.18 92.2599 245.21C91.9898 245.449 91.7894 245.756 91.6799 246.1C91.5931 246.451 91.5863 246.816 91.6599 247.17Z" fill="#EAA2A2"/>
<path d="M99.14 258.14C98.4101 258.263 97.668 258.297 96.93 258.24C96.192 258.27 95.4532 258.21 94.73 258.06C95.4602 257.94 96.2024 257.91 96.94 257.97C97.6774 257.942 98.4156 257.999 99.14 258.14Z" fill="#EAA2A2"/>
<path d="M101.53 264.73C100.182 264.585 98.8454 264.347 97.5298 264.02C96.1951 263.778 94.8786 263.444 93.5898 263.02C94.938 263.169 96.2745 263.409 97.5898 263.74C98.9244 263.979 100.241 264.31 101.53 264.73Z" fill="#EAA2A2"/>
<path d="M78.75 267.05H79L79.65 267.13C80.478 267.242 81.2881 267.46 82.06 267.78C84.13 267.91 87.22 268.11 91.06 268.3C93 268.39 95.12 268.49 97.41 268.5C97.99 268.5 98.57 268.5 99.16 268.5C99.7425 268.523 100.321 268.396 100.84 268.13C101.083 267.965 101.287 267.749 101.438 267.497C101.588 267.245 101.681 266.962 101.71 266.67C101.79 266.055 101.749 265.43 101.59 264.83L101.54 264.62H101.76C102.413 264.667 103.069 264.603 103.7 264.43C104.356 264.294 104.976 264.021 105.52 263.63C105.763 263.41 105.926 263.117 105.983 262.795C106.041 262.472 105.991 262.14 105.84 261.85C105.56 261.198 105.156 260.607 104.65 260.11C103.74 259.705 102.787 259.404 101.81 259.21L98.73 258.41L97.58 258.1H98.78L103.9 258C104.763 258.077 105.631 257.929 106.42 257.57C106.919 257.311 107.338 256.921 107.632 256.441C107.926 255.962 108.084 255.412 108.09 254.85C108.094 254.306 107.921 253.775 107.596 253.338C107.271 252.901 106.813 252.582 106.29 252.43L105.86 252.28L106.27 252.12C106.762 251.922 107.191 251.593 107.508 251.168C107.826 250.743 108.02 250.238 108.07 249.71C108.105 249.197 107.998 248.685 107.76 248.229C107.521 247.774 107.162 247.393 106.72 247.13C106.264 246.882 105.771 246.71 105.26 246.62L103.74 246.26L100.74 245.57C98.81 245.13 96.87 244.73 95.06 244.45C94.61 244.38 94.16 244.32 93.71 244.29H93L92.35 244.42C91.51 244.64 90.69 244.9 89.9 245.15C83.56 247.22 78.74 249.02 76.05 249.95L73.91 249.54L73.38 249.43L73.92 249.5L76.07 249.86C78.74 248.86 83.54 247.03 89.88 244.92C90.67 244.66 91.49 244.4 92.35 244.17L93 244C93.2329 243.98 93.467 243.98 93.7 244C94.16 244.019 94.618 244.072 95.07 244.16C96.91 244.43 98.8 244.8 100.77 245.25L103.77 245.94L105.3 246.3C105.841 246.389 106.362 246.572 106.84 246.84C107.336 247.134 107.74 247.56 108.008 248.07C108.277 248.58 108.398 249.155 108.36 249.73C108.31 250.32 108.097 250.885 107.743 251.36C107.39 251.835 106.911 252.202 106.36 252.42V252.11C106.935 252.302 107.447 252.648 107.84 253.11C108.238 253.595 108.438 254.213 108.4 254.84C108.372 255.457 108.2 256.06 107.9 256.6C107.592 257.161 107.116 257.612 106.54 257.89C105.694 258.272 104.764 258.427 103.84 258.34L98.71 258.44V258.11L101.71 258.91C102.725 259.131 103.711 259.466 104.65 259.91C105.2 260.438 105.638 261.07 105.94 261.77C106.099 262.124 106.151 262.517 106.09 262.9C106.06 263.095 106 263.284 105.91 263.46C105.803 263.619 105.675 263.764 105.53 263.89C104.958 264.317 104.299 264.614 103.6 264.76C102.929 264.939 102.232 265 101.54 264.94L101.71 264.75C101.875 265.403 101.913 266.082 101.82 266.75C101.785 267.082 101.677 267.401 101.504 267.687C101.331 267.972 101.098 268.215 100.82 268.4C100.258 268.689 99.6316 268.831 99 268.81C98.4 268.81 97.81 268.81 97.24 268.81C94.94 268.81 92.81 268.68 90.88 268.57C87.01 268.35 83.95 268.12 81.88 267.93C81.1222 267.619 80.3299 267.401 79.52 267.28L78.87 267.17L78.75 267.05Z" fill="#EAA2A2"/>
<path d="M76.8199 266.78C76.8199 266.78 25.1099 268.03 20.5599 265.48C16.0099 262.93 10.7399 255.48 14.7999 245.56C17.7896 238.632 21.3519 231.966 25.4499 225.63L35.5099 231.83L47.9699 239.83L44.5499 245.34L78.0499 249.85L76.8199 266.78Z" fill="#FDC1C2"/>
</g>
<defs>
<clipPath id="clip0_93_208">
<rect width="358.57" height="287.84" fill="white" class="svg-light" />
</clipPath>
</defs>
</svg>
